<svg version="1.1" baseProfile="full" height="544" width="512" xmlns="http://www.w3.org/2000/svg"><path fill="rgb(60,60,60)" stroke="rgb(60,60,60)" stroke-width="1" d=" M 94.59,64.00 C 94.59,64.00 61.00,64.00 61.00,64.00 53.70,64.00 47.87,61.82 43.52,57.47 39.17,53.12 37.00,47.29 37.00,40.00 37.00,32.68 39.16,26.85 43.50,22.52 47.83,18.17 53.66,16.00 61.00,16.00 61.00,16.00 94.59,16.00 94.59,16.00 94.59,16.00 94.59,28.00 94.59,28.00 94.59,28.00 61.00,28.00 61.00,28.00 59.72,28.00 58.58,28.70 57.59,30.11 56.66,31.39 56.20,32.69 56.20,34.00 56.20,34.00 82.59,34.00 82.59,34.00 82.59,34.00 82.59,46.00 82.59,46.00 82.59,46.00 56.20,46.00 56.20,46.00 56.20,47.31 56.66,48.61 57.59,49.89 58.58,51.30 59.72,52.00 61.00,52.00 61.00,52.00 94.59,52.00 94.59,52.00 94.59,52.00 94.59,64.00 94.59,64.00 Z M 126.20,64.00 C 126.20,64.00 107.00,64.00 107.00,64.00 107.00,64.00 107.00,16.09 107.00,16.09 107.00,16.09 126.20,16.00 126.20,16.00 126.20,16.00 126.20,64.00 126.20,64.00 Z M 200.41,48.97 C 200.41,53.42 199.02,57.04 196.25,59.83 193.48,62.61 189.87,64.00 185.42,64.00 185.42,64.00 138.00,64.00 138.00,64.00 138.00,64.00 138.00,52.00 138.00,52.00 138.00,52.00 176.41,52.00 176.41,52.00 177.39,52.00 178.24,51.74 178.94,51.22 179.64,50.69 180.00,49.94 180.00,48.97 180.00,48.04 179.64,47.32 178.92,46.80 178.20,46.27 177.36,46.00 176.41,46.00 176.41,46.00 153.03,46.00 153.03,46.00 148.54,46.00 144.91,44.62 142.14,41.86 139.38,39.09 138.00,35.46 138.00,30.97 138.00,26.49 139.38,22.88 142.16,20.12 144.93,17.38 148.55,16.00 153.03,16.00 153.03,16.00 200.41,16.00 200.41,16.00 200.41,16.00 200.41,28.00 200.41,28.00 200.41,28.00 162.00,28.00 162.00,28.00 161.07,28.00 160.24,28.27 159.50,28.81 158.77,29.36 158.41,30.07 158.41,30.97 158.41,31.91 158.79,32.66 159.56,33.23 160.23,33.75 161.04,34.00 162.00,34.00 162.00,34.00 185.44,34.00 185.44,34.00 189.91,34.00 193.53,35.38 196.28,38.12 199.03,40.88 200.41,44.49 200.41,48.97 Z M 269.59,64.00 C 269.59,64.00 236.00,64.00 236.00,64.00 228.70,64.00 222.87,61.82 218.52,57.47 214.17,53.12 212.00,47.29 212.00,40.00 212.00,32.68 214.16,26.85 218.50,22.52 222.83,18.17 228.66,16.00 236.00,16.00 236.00,16.00 269.59,16.00 269.59,16.00 269.59,16.00 269.59,28.00 269.59,28.00 269.59,28.00 236.00,28.00 236.00,28.00 234.72,28.00 233.58,28.70 232.59,30.11 231.66,31.39 231.20,32.69 231.20,34.00 231.20,34.00 257.59,34.00 257.59,34.00 257.59,34.00 257.59,46.00 257.59,46.00 257.59,46.00 231.20,46.00 231.20,46.00 231.20,47.31 231.66,48.61 232.59,49.89 233.58,51.30 234.72,52.00 236.00,52.00 236.00,52.00 269.59,52.00 269.59,52.00 269.59,52.00 269.59,64.00 269.59,64.00 Z M 325.20,64.00 C 325.20,64.00 297.03,64.00 297.03,64.00 292.54,64.00 288.91,62.62 286.14,59.86 283.38,57.09 282.00,53.46 282.00,48.97 282.00,48.97 282.00,16.00 282.00,16.00 282.00,16.00 301.20,16.00 301.20,16.00 301.20,16.00 301.20,46.00 301.20,46.00 301.20,47.31 301.66,48.61 302.59,49.89 303.58,51.30 304.72,52.00 306.00,52.00 306.00,52.00 325.20,52.00 325.20,52.00 325.20,52.00 325.20,64.00 325.20,64.00 Z M 394.59,64.00 C 394.59,64.00 361.00,64.00 361.00,64.00 353.70,64.00 347.87,61.82 343.52,57.47 339.17,53.12 337.00,47.29 337.00,40.00 337.00,32.68 339.16,26.85 343.50,22.52 347.83,18.17 353.66,16.00 361.00,16.00 361.00,16.00 394.59,16.00 394.59,16.00 394.59,16.00 394.59,28.00 394.59,28.00 394.59,28.00 361.00,28.00 361.00,28.00 359.72,28.00 358.58,28.70 357.59,30.11 356.66,31.39 356.20,32.69 356.20,34.00 356.20,34.00 382.59,34.00 382.59,34.00 382.59,34.00 382.59,46.00 382.59,46.00 382.59,46.00 356.20,46.00 356.20,46.00 356.20,47.31 356.66,48.61 357.59,49.89 358.58,51.30 359.72,52.00 361.00,52.00 361.00,52.00 394.59,52.00 394.59,52.00 394.59,52.00 394.59,64.00 394.59,64.00 Z M 474.20,52.00 C 474.20,55.62 473.10,58.52 470.91,60.72 468.72,62.91 465.82,64.00 462.20,64.00 459.55,64.00 457.14,63.20 455.00,61.59 455.00,61.59 426.20,40.00 426.20,40.00 426.20,40.00 426.25,64.00 426.25,64.00 426.25,64.00 407.00,64.00 407.00,64.00 407.00,64.00 407.00,28.00 407.00,28.00 407.00,24.39 408.09,21.48 410.28,19.30 412.48,17.10 415.38,16.00 419.00,16.00 421.66,16.00 424.05,16.80 426.20,18.41 426.20,18.41 455.00,40.05 455.00,40.05 455.00,40.05 455.00,16.00 455.00,16.00 455.00,16.00 474.20,16.00 474.20,16.00 474.20,16.00 474.20,52.00 474.20,52.00 Z M 57.92,115.00 C 57.92,115.00 41.02,115.00 41.02,115.00 38.33,115.00 36.15,114.17 34.48,112.50 32.83,110.82 32.00,108.63 32.00,105.92 32.00,105.92 32.00,86.00 32.00,86.00 32.00,86.00 43.52,86.00 43.52,86.00 43.52,86.00 43.52,104.33 43.52,104.33 43.52,105.13 43.79,105.92 44.34,106.70 44.95,107.57 45.63,108.00 46.39,108.00 46.39,108.00 57.92,108.00 57.92,108.00 57.92,108.00 57.92,115.00 57.92,115.00 Z M 97.66,115.00 C 97.66,115.00 86.14,115.00 86.14,115.00 86.14,115.00 86.14,104.00 86.14,104.00 86.14,104.00 79.66,104.00 79.66,104.00 79.66,104.00 79.66,97.00 79.66,97.00 79.66,97.00 86.14,97.00 86.14,97.00 86.14,97.00 86.14,93.00 86.14,93.00 86.14,93.00 81.81,93.00 81.81,93.00 80.51,93.00 79.43,94.23 78.56,96.67 78.56,96.67 72.08,115.00 72.08,115.00 72.08,115.00 60.19,115.00 60.19,115.00 60.19,115.00 65.97,99.05 65.97,99.05 69.12,90.35 74.41,86.00 81.81,86.00 81.81,86.00 88.64,86.00 88.64,86.00 91.87,86.00 94.27,86.81 95.84,88.44 97.05,89.67 97.66,91.19 97.66,93.00 97.66,93.00 97.66,115.00 97.66,115.00 Z M 138.44,105.92 C 138.44,108.55 137.65,110.70 136.08,112.39 134.48,114.13 132.39,115.00 129.80,115.00 129.80,115.00 101.00,115.00 101.00,115.00 101.00,115.00 101.00,97.00 101.00,97.00 101.00,97.00 124.05,97.00 124.05,97.00 124.64,97.00 125.14,96.82 125.56,96.47 125.99,96.12 126.20,95.62 126.20,94.98 126.20,94.37 125.98,93.89 125.55,93.53 125.12,93.18 124.62,93.00 124.05,93.00 124.05,93.00 101.00,93.00 101.00,93.00 101.00,93.00 101.00,86.00 101.00,86.00 101.00,86.00 129.45,86.00 129.45,86.00 132.14,86.00 134.30,86.84 135.95,88.50 137.61,90.16 138.44,92.34 138.44,95.05 138.44,97.31 137.60,99.12 135.94,100.50 137.60,101.88 138.44,103.68 138.44,105.92 Z M 124.05,108.00 C 124.64,108.00 125.14,107.82 125.56,107.47 125.99,107.12 126.20,106.62 126.20,105.98 126.20,105.37 125.98,104.89 125.55,104.53 125.12,104.18 124.62,104.00 124.05,104.00 124.05,104.00 112.52,104.00 112.52,104.00 112.52,104.00 112.52,108.00 112.52,108.00 112.52,108.00 124.05,108.00 124.05,108.00 Z M 184.86,100.50 C 184.86,104.93 183.55,108.45 180.95,111.08 178.35,113.70 174.85,115.00 170.45,115.00 170.45,115.00 156.41,115.00 156.41,115.00 152.02,115.00 148.52,113.69 145.91,111.06 143.30,108.43 142.00,104.91 142.00,100.50 142.00,96.07 143.30,92.55 145.91,89.94 148.51,87.31 152.01,86.00 156.41,86.00 156.41,86.00 170.45,86.00 170.45,86.00 174.85,86.00 178.35,87.31 180.95,89.94 183.55,92.55 184.86,96.07 184.86,100.50 Z M 173.33,104.25 C 173.33,104.25 173.33,96.75 173.33,96.75 173.33,95.93 173.05,95.12 172.50,94.31 171.89,93.44 171.21,93.00 170.45,93.00 170.45,93.00 156.39,93.00 156.39,93.00 155.63,93.00 154.95,93.44 154.34,94.31 153.79,95.12 153.52,95.93 153.52,96.75 153.52,96.75 153.52,104.25 153.52,104.25 153.52,105.07 153.79,105.89 154.34,106.69 154.95,107.56 155.63,108.00 156.39,108.00 156.39,108.00 170.45,108.00 170.45,108.00 171.21,108.00 171.89,107.56 172.50,106.69 173.05,105.89 173.33,105.07 173.33,104.25 Z M 225.44,115.00 C 225.44,115.00 213.20,115.00 213.20,115.00 213.20,115.00 213.20,105.81 213.20,105.81 213.20,104.61 212.48,104.00 211.05,104.00 211.05,104.00 199.52,104.00 199.52,104.00 199.52,104.00 199.52,115.00 199.52,115.00 199.52,115.00 188.00,115.00 188.00,115.00 188.00,115.00 188.00,97.00 188.00,97.00 188.00,97.00 211.05,97.00 211.05,97.00 211.64,97.00 212.14,96.82 212.56,96.47 212.99,96.12 213.20,95.62 213.20,94.98 213.20,94.37 212.98,93.89 212.55,93.53 212.12,93.18 211.62,93.00 211.05,93.00 211.05,93.00 188.00,93.00 188.00,93.00 188.00,93.00 188.00,86.00 188.00,86.00 188.00,86.00 216.45,86.00 216.45,86.00 219.14,86.00 221.30,86.84 222.95,88.50 224.61,90.16 225.44,92.34 225.44,95.05 225.44,97.31 224.60,99.12 222.94,100.50 224.60,101.88 225.44,103.68 225.44,105.92 225.44,105.92 225.44,115.00 225.44,115.00 Z M 264.66,115.00 C 264.66,115.00 253.14,115.00 253.14,115.00 253.14,115.00 253.14,104.00 253.14,104.00 253.14,104.00 246.66,104.00 246.66,104.00 246.66,104.00 246.66,97.00 246.66,97.00 246.66,97.00 253.14,97.00 253.14,97.00 253.14,97.00 253.14,93.00 253.14,93.00 253.14,93.00 248.81,93.00 248.81,93.00 247.51,93.00 246.43,94.23 245.56,96.67 245.56,96.67 239.08,115.00 239.08,115.00 239.08,115.00 227.19,115.00 227.19,115.00 227.19,115.00 232.97,99.05 232.97,99.05 236.12,90.35 241.41,86.00 248.81,86.00 248.81,86.00 255.64,86.00 255.64,86.00 258.87,86.00 261.27,86.81 262.84,88.44 264.05,89.67 264.66,91.19 264.66,93.00 264.66,93.00 264.66,115.00 264.66,115.00 Z M 295.80,93.00 C 295.80,93.00 287.16,93.00 287.16,93.00 287.16,93.00 287.16,115.00 287.16,115.00 287.16,115.00 275.64,115.00 275.64,115.00 275.64,115.00 275.64,93.00 275.64,93.00 275.64,93.00 267.00,93.00 267.00,93.00 267.00,93.00 267.00,86.00 267.00,86.00 267.00,86.00 295.80,86.00 295.80,86.00 295.80,86.00 295.80,93.00 295.80,93.00 Z M 342.86,100.50 C 342.86,104.93 341.55,108.45 338.95,111.08 336.35,113.70 332.85,115.00 328.45,115.00 328.45,115.00 314.41,115.00 314.41,115.00 310.02,115.00 306.52,113.69 303.91,111.06 301.30,108.43 300.00,104.91 300.00,100.50 300.00,96.07 301.30,92.55 303.91,89.94 306.51,87.31 310.01,86.00 314.41,86.00 314.41,86.00 328.45,86.00 328.45,86.00 332.85,86.00 336.35,87.31 338.95,89.94 341.55,92.55 342.86,96.07 342.86,100.50 Z M 331.33,104.25 C 331.33,104.25 331.33,96.75 331.33,96.75 331.33,95.93 331.05,95.12 330.50,94.31 329.89,93.44 329.21,93.00 328.45,93.00 328.45,93.00 314.39,93.00 314.39,93.00 313.63,93.00 312.95,93.44 312.34,94.31 311.79,95.12 311.52,95.93 311.52,96.75 311.52,96.75 311.52,104.25 311.52,104.25 311.52,105.07 311.79,105.89 312.34,106.69 312.95,107.56 313.63,108.00 314.39,108.00 314.39,108.00 328.45,108.00 328.45,108.00 329.21,108.00 329.89,107.56 330.50,106.69 331.05,105.89 331.33,105.07 331.33,104.25 Z M 383.44,115.00 C 383.44,115.00 371.20,115.00 371.20,115.00 371.20,115.00 371.20,105.81 371.20,105.81 371.20,104.61 370.48,104.00 369.05,104.00 369.05,104.00 357.52,104.00 357.52,104.00 357.52,104.00 357.52,115.00 357.52,115.00 357.52,115.00 346.00,115.00 346.00,115.00 346.00,115.00 346.00,97.00 346.00,97.00 346.00,97.00 369.05,97.00 369.05,97.00 369.64,97.00 370.14,96.82 370.56,96.47 370.99,96.12 371.20,95.62 371.20,94.98 371.20,94.37 370.98,93.89 370.55,93.53 370.12,93.18 369.62,93.00 369.05,93.00 369.05,93.00 346.00,93.00 346.00,93.00 346.00,93.00 346.00,86.00 346.00,86.00 346.00,86.00 374.45,86.00 374.45,86.00 377.14,86.00 379.30,86.84 380.95,88.50 382.61,90.16 383.44,92.34 383.44,95.05 383.44,97.31 382.60,99.12 380.94,100.50 382.60,101.88 383.44,103.68 383.44,105.92 383.44,105.92 383.44,115.00 383.44,115.00 Z M 398.52,115.00 C 398.52,115.00 387.00,115.00 387.00,115.00 387.00,115.00 387.00,86.06 387.00,86.06 387.00,86.06 398.52,86.00 398.52,86.00 398.52,86.00 398.52,115.00 398.52,115.00 Z M 436.56,115.00 C 436.56,115.00 416.41,115.00 416.41,115.00 412.02,115.00 408.52,113.69 405.91,111.06 403.30,108.43 402.00,104.91 402.00,100.50 402.00,96.07 403.30,92.55 405.91,89.94 408.51,87.31 412.01,86.00 416.41,86.00 416.41,86.00 436.56,86.00 436.56,86.00 436.56,86.00 436.56,93.00 436.56,93.00 436.56,93.00 416.39,93.00 416.39,93.00 415.63,93.00 414.95,93.47 414.34,94.41 413.79,95.26 413.52,96.12 413.52,97.00 413.52,97.00 429.36,97.00 429.36,97.00 429.36,97.00 429.36,104.00 429.36,104.00 429.36,104.00 413.52,104.00 413.52,104.00 413.52,104.88 413.79,105.74 414.34,106.59 414.95,107.53 415.63,108.00 416.39,108.00 416.39,108.00 436.56,108.00 436.56,108.00 436.56,108.00 436.56,115.00 436.56,115.00 Z M 477.44,105.98 C 477.44,108.65 476.60,110.82 474.94,112.50 473.28,114.17 471.12,115.00 468.45,115.00 468.45,115.00 440.00,115.00 440.00,115.00 440.00,115.00 440.00,108.00 440.00,108.00 440.00,108.00 463.05,108.00 463.05,108.00 463.64,108.00 464.14,107.82 464.56,107.47 464.99,107.12 465.20,106.62 465.20,105.98 465.20,105.37 464.98,104.89 464.55,104.53 464.12,104.18 463.62,104.00 463.05,104.00 463.05,104.00 449.02,104.00 449.02,104.00 446.33,104.00 444.15,103.17 442.48,101.52 440.83,99.85 440.00,97.67 440.00,94.98 440.00,92.30 440.83,90.13 442.48,88.48 444.15,86.83 446.33,86.00 449.02,86.00 449.02,86.00 477.44,86.00 477.44,86.00 477.44,86.00 477.44,93.00 477.44,93.00 477.44,93.00 454.39,93.00 454.39,93.00 453.84,93.00 453.34,93.18 452.89,93.55 452.45,93.91 452.23,94.39 452.23,94.98 452.23,95.60 452.46,96.10 452.92,96.48 453.33,96.83 453.82,97.00 454.39,97.00 454.39,97.00 468.45,97.00 468.45,97.00 471.14,97.00 473.30,97.83 474.95,99.48 476.61,101.13 477.44,103.30 477.44,105.98 Z"/> <polygon points= "27.36929340090822,124 484.6307065990917,124 256,520" style="fill:darkgray;fill-opacity:0;stroke:rgb(60,60,60);stroke-width:8" /> <polygon points= "311.42562584220406,224  200.57437415779592,224  256,128" style="fill:rgb(60,60,60);stroke:rgb(60,60,60);stroke-width:0" /> <polygon points= "256,320  145.14874831559186,320  200.57437415779594,224" style="fill:rgb(60,60,60);stroke:rgb(60,60,60);stroke-width:0" />  <polygon points= "366.8512516844081,320  256,320  311.42562584220406,224" style="fill:rgb(60,60,60);stroke:rgb(60,60,60);stroke-width:0" /> </svg>
